REM DIRINDEX 1\2,1\3,1\4,1\5,1\6
REM DIRNAME folder01,folder02,folder03,folder04,folder05,folder06
TITLE ""
FILE "Disc4Track44.mp3" MP3
  TRACK 01 AUDIO
    TITLE "3:cjc030_07274"
    INDEX 01 00:00:00
  TRACK 02 AUDIO
    TITLE "0:"
    INDEX 01 00:01:21
  TRACK 03 AUDIO
    TITLE "4:cjc030_07275"
    INDEX 01 00:01:30
  TRACK 04 AUDIO
    TITLE "0:"
    INDEX 01 00:04:48
  TRACK 05 AUDIO
    TITLE "5:cjc030_07276"
    INDEX 01 00:04:56
  TRACK 06 AUDIO
    TITLE "0:"
    INDEX 01 00:06:04
  TRACK 07 AUDIO
    TITLE "6:cjc030_07277"
    INDEX 01 00:06:16
  TRACK 08 AUDIO
    TITLE "0:"
    INDEX 01 00:11:05
  TRACK 09 AUDIO
    TITLE "3:cjc030_07278"
    INDEX 01 00:11:54
  TRACK 10 AUDIO
    TITLE "0:"
    INDEX 01 00:13:06
  TRACK 11 AUDIO
    TITLE "4:cjc030_07279"
    INDEX 01 00:13:14
  TRACK 12 AUDIO
    TITLE "0:"
    INDEX 01 00:15:25
  TRACK 13 AUDIO
    TITLE "5:cjc030_07280"
    INDEX 01 00:15:34
  TRACK 14 AUDIO
    TITLE "0:"
    INDEX 01 00:16:61
  TRACK 15 AUDIO
    TITLE "6:cjc030_07281"
    INDEX 01 00:16:73
  TRACK 16 AUDIO
    TITLE "0:"
    INDEX 01 00:22:15
  TRACK 17 AUDIO
    TITLE "3:cjc030_07282"
    INDEX 01 00:22:64
  TRACK 18 AUDIO
    TITLE "0:"
    INDEX 01 00:24:06
  TRACK 19 AUDIO
    TITLE "4:cjc030_07283"
    INDEX 01 00:24:12
  TRACK 20 AUDIO
    TITLE "0:"
    INDEX 01 00:26:34
  TRACK 21 AUDIO
    TITLE "5:cjc030_07284"
    INDEX 01 00:26:42
  TRACK 22 AUDIO
    TITLE "0:"
    INDEX 01 00:27:59
  TRACK 23 AUDIO
    TITLE "6:cjc030_07285"
    INDEX 01 00:27:71
  TRACK 24 AUDIO
    TITLE "0:"
    INDEX 01 00:32:74
  TRACK 25 AUDIO
    TITLE "3:cjc030_07286"
    INDEX 01 00:33:48
  TRACK 26 AUDIO
    TITLE "0:"
    INDEX 01 00:34:59
  TRACK 27 AUDIO
    TITLE "4:cjc030_07287"
    INDEX 01 00:34:71
  TRACK 28 AUDIO
    TITLE "0:"
    INDEX 01 00:35:72
  TRACK 29 AUDIO
    TITLE "5:cjc030_07288"
    INDEX 01 00:36:07
  TRACK 30 AUDIO
    TITLE "0:"
    INDEX 01 00:37:18
  TRACK 31 AUDIO
    TITLE "3:cjc030_07289"
    INDEX 01 00:37:67
  TRACK 32 AUDIO
    TITLE "0:"
    INDEX 01 00:38:69
  TRACK 33 AUDIO
    TITLE "4:cjc030_07290"
    INDEX 01 00:39:03
  TRACK 34 AUDIO
    TITLE "0:"
    INDEX 01 00:41:06
  TRACK 35 AUDIO
    TITLE "5:cjc030_07291"
    INDEX 01 00:41:16
  TRACK 36 AUDIO
    TITLE "0:"
    INDEX 01 00:42:18
  TRACK 37 AUDIO
    TITLE "6:cjc030_07292"
    INDEX 01 00:42:29
  TRACK 38 AUDIO
    TITLE "0:"
    INDEX 01 00:45:45
  TRACK 39 AUDIO
    TITLE "3:cjc030_07293"
    INDEX 01 00:46:15
  TRACK 40 AUDIO
    TITLE "0:"
    INDEX 01 00:47:32
  TRACK 41 AUDIO
    TITLE "4:cjc030_07294"
    INDEX 01 00:47:40
  TRACK 42 AUDIO
    TITLE "0:"
    INDEX 01 00:48:63
  TRACK 43 AUDIO
    TITLE "5:cjc030_07295"
    INDEX 01 00:49:00
  TRACK 44 AUDIO
    TITLE "0:"
    INDEX 01 00:50:13
  TRACK 45 AUDIO
    TITLE "6:cjc030_07296"
    INDEX 01 00:50:27
  TRACK 46 AUDIO
    TITLE "0:"
    INDEX 01 00:56:24
  TRACK 47 AUDIO
    TITLE "3:cjc030_07297"
    INDEX 01 00:56:72
  TRACK 48 AUDIO
    TITLE "0:"
    INDEX 01 00:58:15
  TRACK 49 AUDIO
    TITLE "4:cjc030_07298"
    INDEX 01 00:58:24
  TRACK 50 AUDIO
    TITLE "0:"
    INDEX 01 00:59:43
  TRACK 51 AUDIO
    TITLE "5:cjc030_07299"
    INDEX 01 00:59:53
  TRACK 52 AUDIO
    TITLE "0:"
    INDEX 01 01:00:70
  TRACK 53 AUDIO
    TITLE "6:cjc030_07300"
    INDEX 01 01:01:07
  TRACK 54 AUDIO
    TITLE "0:"
    INDEX 01 01:03:12
  TRACK 55 AUDIO
    TITLE "3:cjc030_07301"
    INDEX 01 01:03:61
  TRACK 56 AUDIO
    TITLE "0:"
    INDEX 01 01:05:01
  TRACK 57 AUDIO
    TITLE "4:cjc030_07302"
    INDEX 01 01:05:09
  TRACK 58 AUDIO
    TITLE "0:"
    INDEX 01 01:07:10
  TRACK 59 AUDIO
    TITLE "5:cjc030_07303"
    INDEX 01 01:07:19
  TRACK 60 AUDIO
    TITLE "0:"
    INDEX 01 01:08:35
  TRACK 61 AUDIO
    TITLE "3:cjc030_07304"
    INDEX 01 01:09:18
  TRACK 62 AUDIO
    TITLE "0:"
    INDEX 01 01:10:20
  TRACK 63 AUDIO
    TITLE "4:cjc030_07305"
    INDEX 01 01:10:30
  TRACK 64 AUDIO
    TITLE "0:"
    INDEX 01 01:12:46
  TRACK 65 AUDIO
    TITLE "5:cjc030_07306"
    INDEX 01 01:12:56
  TRACK 66 AUDIO
    TITLE "0:"
    INDEX 01 01:13:57
  TRACK 67 AUDIO
    TITLE "6:cjc030_07307"
    INDEX 01 01:13:71
  TRACK 68 AUDIO
    TITLE "0:"
    INDEX 01 01:19:05
  TRACK 69 AUDIO
    TITLE "3:cjc030_07308"
    INDEX 01 01:19:52
  TRACK 70 AUDIO
    TITLE "0:"
    INDEX 01 01:20:63
  TRACK 71 AUDIO
    TITLE "4:cjc030_07309"
    INDEX 01 01:20:71
  TRACK 72 AUDIO
    TITLE "0:"
    INDEX 01 01:21:70
  TRACK 73 AUDIO
    TITLE "5:cjc030_07310"
    INDEX 01 01:22:05
  TRACK 74 AUDIO
    TITLE "0:"
    INDEX 01 01:23:11
  TRACK 75 AUDIO
    TITLE "3:cjc030_07311"
    INDEX 01 01:23:71
  TRACK 76 AUDIO
    TITLE "0:"
    INDEX 01 01:25:08
  TRACK 77 AUDIO
    TITLE "4:cjc030_07312"
    INDEX 01 01:25:17
  TRACK 78 AUDIO
    TITLE "0:"
    INDEX 01 01:26:40
  TRACK 79 AUDIO
    TITLE "5:cjc030_07313"
    INDEX 01 01:26:50
  TRACK 80 AUDIO
    TITLE "0:"
    INDEX 01 01:27:59
  TRACK 81 AUDIO
    TITLE "6:cjc030_07314"
    INDEX 01 01:27:73
  TRACK 82 AUDIO
    TITLE "0:"
    INDEX 01 01:29:54
  TRACK 83 AUDIO
    TITLE "3:cjc030_07315"
    INDEX 01 01:30:28
  TRACK 84 AUDIO
    TITLE "0:"
    INDEX 01 01:31:43
  TRACK 85 AUDIO
    TITLE "4:cjc030_07316"
    INDEX 01 01:31:53
  TRACK 86 AUDIO
    TITLE "0:"
    INDEX 01 01:32:74
  TRACK 87 AUDIO
    TITLE "5:cjc030_07317"
    INDEX 01 01:33:07
  TRACK 88 AUDIO
    TITLE "0:"
    INDEX 01 01:34:24
  TRACK 89 AUDIO
    TITLE "3:cjc030_07318"
    INDEX 01 01:35:04
  TRACK 90 AUDIO
    TITLE "0:"
    INDEX 01 01:36:03
  TRACK 91 AUDIO
    TITLE "4:cjc030_07319"
    INDEX 01 01:36:13
  TRACK 92 AUDIO
    TITLE "0:"
    INDEX 01 01:37:09
  TRACK 93 AUDIO
    TITLE "5:cjc030_07320"
    INDEX 01 01:37:17
  TRACK 94 AUDIO
    TITLE "0:"
    INDEX 01 01:38:18
  TRACK 95 AUDIO
    TITLE "6:cjc030_07321"
    INDEX 01 01:38:32
  TRACK 96 AUDIO
    TITLE "0:"
    INDEX 01 01:40:15
  TRACK 97 AUDIO
    TITLE "3:cjc030_07322"
    INDEX 01 01:40:64
  TRACK 98 AUDIO
    TITLE "0:"
    INDEX 01 01:41:73
  TRACK 99 AUDIO
    TITLE "4:cjc030_07323"
    INDEX 01 01:42:08
  TRACK 100 AUDIO
    TITLE "0:"
    INDEX 01 01:43:31
  TRACK 101 AUDIO
    TITLE "5:cjc030_07324"
    INDEX 01 01:43:39
  TRACK 102 AUDIO
    TITLE "0:"
    INDEX 01 01:44:50
  TRACK 103 AUDIO
    TITLE "6:cjc030_07325"
    INDEX 01 01:44:64
  TRACK 104 AUDIO
    TITLE "0:"
    INDEX 01 01:49:55
  TRACK 105 AUDIO
    TITLE "3:cjc030_07326"
    INDEX 01 01:50:29
  TRACK 106 AUDIO
    TITLE "0:"
    INDEX 01 01:51:36
  TRACK 107 AUDIO
    TITLE "4:cjc030_07327"
    INDEX 01 01:51:44
  TRACK 108 AUDIO
    TITLE "0:"
    INDEX 01 01:52:48
  TRACK 109 AUDIO
    TITLE "5:cjc030_07328"
    INDEX 01 01:52:57
  TRACK 110 AUDIO
    TITLE "0:"
    INDEX 01 01:53:61
  TRACK 111 AUDIO
    TITLE "3:cjc030_07329"
    INDEX 01 01:54:44
  TRACK 112 AUDIO
    TITLE "0:"
    INDEX 01 01:55:52
  TRACK 113 AUDIO
    TITLE "4:cjc030_07330"
    INDEX 01 01:55:62
  TRACK 114 AUDIO
    TITLE "0:"
    INDEX 01 01:56:57
  TRACK 115 AUDIO
    TITLE "5:cjc030_07331"
    INDEX 01 01:56:65
  TRACK 116 AUDIO
    TITLE "0:"
    INDEX 01 01:57:74
  TRACK 117 AUDIO
    TITLE "6:cjc030_07332"
    INDEX 01 01:58:11
  TRACK 118 AUDIO
    TITLE "0:"
    INDEX 01 01:59:73
